<?xml version="1.0" encoding="utf-8"?>
<!-- Generator: Adobe Illustrator 22.1.0, SVG Export Plug-In . SVG Version: 6.00 Build 0)  -->
<svg version="1.1" id="Layer_3" xmlns="http://www.w3.org/2000/svg" xmlns:xlink="http://www.w3.org/1999/xlink" x="0px" y="0px"
	 viewBox="0 0 100 62.8" style="enable-background:new 0 0 100 62.8;" xml:space="preserve">
<style type="text/css">
	.st0{fill:#FF4844;}
	.st1{fill:#911815;}
</style>
<g>
	<g>
		<g>
			<g>
				<path class="st0" d="M54,1.2c0-0.2,0.2-0.4,0.4-0.4h33c0.2,0,0.4,0.2,0.5,0.4l2,11c0,0.2-0.1,0.4-0.3,0.4H68.9
					c-0.2,0-0.4,0.2-0.4,0.4l0.1,5.5c0,0.2,0.2,0.4,0.4,0.4h21.9c0.2,0,0.4,0.2,0.5,0.4l7.8,42.5c0,0.2-0.1,0.4-0.3,0.4H54.4
					c-0.2,0-0.4-0.2-0.4-0.4V42.6c0-0.2,0.2-0.4,0.4-0.4l23.4-0.1c0.2,0,0.4-0.2,0.4-0.4l-0.4-6.9c0-0.2-0.2-0.4-0.4-0.4H54.4
					c-0.2,0-0.4-0.2-0.4-0.4L54,1.2L54,1.2z"/>
			</g>
			<g>
				<path class="st1" d="M98.9,62.8H54.4c-0.6,0-1.2-0.5-1.2-1.2V42.6c0-0.6,0.5-1.2,1.2-1.2l23-0.1l-0.3-6.1H54.4
					c-0.6,0-1.2-0.5-1.2-1.2V1.2c0-0.6,0.5-1.2,1.2-1.2h33c0.6,0,1.1,0.4,1.2,1l2,11c0.1,0.3,0,0.7-0.2,0.9
					c-0.2,0.2-0.5,0.4-0.8,0.4H69.3l0.1,4.7h21.5c0.6,0,1.1,0.4,1.2,1l7.8,42.5c0.1,0.3,0,0.7-0.2,0.9
					C99.5,62.7,99.2,62.8,98.9,62.8z M54.7,61.3h43.6l-7.7-41.7H69.1c-0.6,0-1.2-0.5-1.2-1.2l-0.1-5.5c0-0.7,0.5-1.2,1.2-1.2h19.9
					L87.1,1.6H54.7v32.1h22.7c0.6,0,1.1,0.5,1.2,1.1l0,0l0.4,6.8c0,0.3-0.1,0.6-0.3,0.8c-0.2,0.2-0.5,0.4-0.9,0.4L54.7,43V61.3z
					 M54.4,43L54.4,43C54.4,43,54.4,43,54.4,43z M77.8,41.3C77.8,41.3,77.8,41.3,77.8,41.3L77.8,41.3C77.8,41.3,77.8,41.3,77.8,41.3
					z M69.5,18.4L69.5,18.4C69.5,18.4,69.5,18.4,69.5,18.4z M89,12.3C89,12.3,89,12.3,89,12.3L89,12.3z"/>
			</g>
		</g>
		<g>
			<g>
				<path class="st0" d="M15.4,1.2c0.1-0.2,0.3-0.4,0.5-0.4h33.1c0.2,0,0.4,0.2,0.4,0.4v11.3c0,0.2-0.2,0.4-0.4,0.4H27.7
					c-0.2,0-0.4,0.2-0.4,0.4l-3.6,28c0,0.2,0.1,0.4,0.3,0.4h25c0.2,0,0.4,0.2,0.4,0.4v19.5c0,0.2-0.2,0.4-0.4,0.4H1.1
					c-0.2,0-0.4-0.2-0.3-0.4L15.4,1.2z"/>
			</g>
			<g>
				<path class="st1" d="M49,62.8H1.1c-0.4,0-0.7-0.2-0.9-0.4C0,62.1,0,61.8,0,61.4L14.7,0.9l0,0C14.9,0.4,15.4,0,15.9,0h33.1
					c0.6,0,1.2,0.5,1.2,1.2v11.3c0,0.6-0.5,1.2-1.2,1.2H28l-3.5,27.2H49c0.6,0,1.2,0.5,1.2,1.2v19.5C50.2,62.3,49.7,62.8,49,62.8z
					 M1.7,61.2h46.9V42.5H24c-0.3,0-0.6-0.1-0.8-0.4c-0.2-0.2-0.3-0.6-0.3-0.9l0,0l3.6-28.1c0.1-0.6,0.6-1,1.2-1h21V1.6H16.2
					L1.7,61.2z"/>
			</g>
		</g>
	</g>
</g>
</svg>
